<control> default_path=Sustain\
<region> sample=2_Db.wav pitch_keycenter=c#2 hikey=d#2 offset=16842
<region> sample=2_G.wav pitch_keycenter=g2 lokey=e2 hikey=g#2 offset=13886
<region> sample=2_B.wav pitch_keycenter=b2 lokey=a2 hikey=c3 offset=26834
<region> sample=3_Eb.wav pitch_keycenter=d#3 lokey=c#3 hikey=f3 offset=12951
<region> sample=3_A.wav pitch_keycenter=a3 lokey=f#3 hikey=b3 offset=17815
<region> sample=4_Eb.wav pitch_keycenter=d#4 lokey=c4 hikey=e4 offset=17466
<region> sample=4_G.wav pitch_keycenter=g4 lokey=f4 hikey=g#4 offset=12649
<region> sample=4_Bb.wav pitch_keycenter=a#4 lokey=a4 offset=10385